<svg xmlns="http://www.w3.org/2000/svg" width="60" height="60" fill="none" viewBox="0 0 80 80">
  <g filter="url(#a)">
    <path fill="#121115" d="M46.531 7.672c.735.375 1.235.969 1.375 1.687.063.266.172.547.282.625.093.063 1.593.579 3.343 1.11l3.188.984.562-.562c.86-.813 1.532-1.094 2.61-1.094 1.156 0 2 .39 2.781 1.297.844 1 1.047 2.11.656 3.672-.062.25.532.812 3 2.89 1.672 1.422 3.75 3.157 4.578 3.86l1.532 1.297.562-.235c.828-.344 1.735-.297 2.578.156 2.407 1.313 2.188 4.594-.375 5.703l-.625.266-.375 2.594-.375 2.578.64.61c2.235 2.124 0 5.843-2.92 4.843l-.673-.234-4.281 3.453-4.281 3.469v.953c0 .734-.078 1.078-.36 1.484-.765 1.14-2.047 1.61-3.203 1.188l-.687-.235-1.938 1.5c-1.703 1.344-1.922 1.578-1.937 1.985 0 .625-.594 1.78-1.11 2.156-.578.422-1.515.594-2.218.406-.75-.203-1.61-.953-1.813-1.594l-.172-.5-2.937-.656-2.922-.64-.531.624c-.594.688-1.86 1.376-2.547 1.376-.375 0-.453.093-.61.656-.093.375-.968 3.64-1.953 7.281l-1.781 6.594.328.328c1.219 1.219.89 3.36-.64 4.156-1.172.625-2.329.406-3.235-.625-.562-.64-.766-1.39-.594-2.25.094-.547.063-.61-1.11-1.781-1.108-1.125-1.233-1.203-1.608-1.047-1.032.39-2.61-.39-3.079-1.547-.593-1.39.188-3.11 1.594-3.547.281-.078.36-.328.563-1.687l.234-1.594-.5-.484c-.281-.266-.594-.75-.687-1.11l-.172-.625-3.703-1.187c-3.625-1.172-3.72-1.188-4.032-.922-.53.484-1.03.672-1.797.672-2.328 0-3.546-2.735-1.953-4.407l.375-.39-.484-1.906-.484-1.891-.579-.172c-.343-.094-.828-.437-1.14-.781-.735-.828-.89-1.734-.453-2.719l.312-.719-1.453-2.468-1.453-2.47-.703-.108c-.39-.047-.89-.22-1.11-.391-.484-.344-1.03-1.39-1.03-1.969 0-1.016.89-2.156 1.859-2.375.437-.094.5-.219 1.718-3.766.703-2.03 1.266-3.75 1.266-3.843 0-.094-.172-.36-.39-.625-1.141-1.36-.704-3.547.874-4.344.703-.375 1.938-.453 2.47-.156.296.156.515.015 2.108-1.407l1.766-1.593-.14-.625c-.5-2.266 1.609-4.563 3.968-4.297.406.062 1.094.281 1.5.515l.75.422 3.703-1.453c3.39-1.328 3.703-1.484 3.703-1.828 0-.984 1-2.203 2.094-2.547 1.172-.375 2.578.14 3.235 1.203l.343.547 3.36-.062c2.578-.047 3.39-.11 3.437-.266.14-.406 1.063-1.312 1.547-1.516.734-.312 1.594-.265 2.36.11Zm-1.875 1.812c-.406.375-.359 1.079.11 1.391.453.297.937.172 1.265-.313.563-.875-.593-1.796-1.375-1.078Zm-12.28.203c-.938.876.265 2.344 1.265 1.547.515-.39.562-1.093.11-1.547-.407-.406-.938-.39-1.376 0Zm3.484 1.844c-.094.14-.485.594-.907 1.016l-.734.734v2.5l.578.281.578.297 3.406-2.547c1.875-1.421 3.407-2.578 3.407-2.609 0-.015-1.39-.015-3.078.016-2.704.047-3.11.094-3.25.312Zm11.75.844c.171.281 1.312 2.297 2.53 4.453l2.235 3.953h1.235l.937-1.937.938-1.938-.5-.703c-.266-.39-.579-1.078-.672-1.531l-.188-.813L51 12.875c-1.703-.531-3.234-.984-3.39-.984-.282-.016-.282 0 0 .484Zm9.296.234c-.187.11-.468.454-.609.75-.547 1.141.36 2.422 1.688 2.422 1.468 0 2.234-1.953 1.171-2.953-.671-.64-1.468-.719-2.25-.219ZM27.47 13.641c-1.83.718-3.47 1.359-3.641 1.421-.485.172-.188.282 3.562 1.282l3.406.89.344-.39c.187-.219.531-.532.765-.672.422-.266.438-.328.438-1.563 0-1.28 0-1.296-.453-1.484a2.23 2.23 0 0 1-.735-.484c-.14-.157-.296-.297-.312-.297-.031 0-1.563.578-3.375 1.297ZM40 15.234c-3.469 2.61-3.719 2.86-3.312 3.454.062.093 3.03.968 6.593 1.937 3.563.969 6.594 1.797 6.75 1.828.157.047.36-.078.5-.312.25-.375.204-.47-2.218-4.735l-2.485-4.36-.718-.108c-.391-.047-.844-.172-1-.266-.157-.094-.36-.14-.47-.094-.109.031-1.734 1.235-3.64 2.656Zm-21.094-.312c-.75.719-.734 1.719.032 2.531.984 1.063 2.937.203 2.937-1.281 0-1.547-1.844-2.328-2.969-1.25Zm39.22 2.719-.845.093-.843 1.907-.844 1.89.469.61c.25.328.547.843.64 1.156.172.547.235.578 1 .672 1.782.203 10.782.89 11.078.843.235-.03-.843-1.03-4.234-3.906l-4.562-3.875-.5.266c-.282.14-.891.297-1.36.344Zm-34.923.406c-.218.39-.656.875-.953 1.062l-.562.344.093 1.64c.141 2.313.266 3.126.47 3.126.109 0 .452.14.796.312l.61.313 3.406-2.453c3.187-2.297 3.422-2.485 3.328-2.86-.063-.218-.125-.422-.172-.453-.094-.094-6.031-1.703-6.344-1.719-.14-.015-.422.282-.672.688Zm9.375 0c-.765.75-.265 2.11.782 2.11.734 0 1-.126 1.265-.657.656-1.266-1.047-2.469-2.047-1.453Zm-16.53 2.5c-1.548 1.39-1.657 1.515-1.517 1.89.094.22.157.547.157.735 0 .297.312.5 1.953 1.25l1.969.89.625-.468c.343-.25.687-.469.78-.5.079-.032.063-.938-.046-2.282l-.172-2.218-.562-.157a5.488 5.488 0 0 1-.954-.39 3.771 3.771 0 0 0-.484-.235c-.047 0-.828.672-1.75 1.485Zm19.765.515c-.235.25-.547.516-.703.594-.25.14-.25.282.062 2.61.344 2.406.344 2.453.75 2.547 1.016.218 1.781.609 2.438 1.25.39.375.765.687.812.687.078 0 3.297-1.234 10.484-4.016.11-.047.172-.156.141-.25-.031-.109-12.156-3.562-13.516-3.843-.03-.016-.25.187-.468.422Zm-7.72 2.907c-1.827 1.312-3.312 2.437-3.296 2.5.031.047.047.437.047.843v.766l3.062.656c1.688.375 3.11.61 3.172.547a29 29 0 0 0 .563-.75c.234-.328.781-.812 1.203-1.078.516-.328.75-.578.75-.797-.016-.468-.578-4.484-.656-4.531-.282-.172-1.188-.547-1.328-.547-.094-.015-1.688 1.063-3.516 2.39Zm-17.046-1.594c-.14.11-.297.39-.344.625-.078.328-.015.516.297.813.219.234.531.406.719.406.172 0 .5-.172.719-.407.656-.656.234-1.625-.72-1.625-.218 0-.53.094-.67.188Zm41.453.516c-.578.297-.781.672-.781 1.484 0 .922.656 1.563 1.562 1.563.532 0 .75-.094 1.188-.532.734-.734.734-1.484 0-2.218-.594-.594-1.203-.688-1.969-.297Zm18.89 2.156c-1.25.953-.155 2.765 1.345 2.203.359-.14.75-.969.64-1.406-.219-.828-1.344-1.297-1.984-.797Zm-58.921.906-.797.266-1.297 3.75c-.953 2.797-1.25 3.797-1.11 3.906.126.094 1.485-.672 4.25-2.422 2.235-1.406 4.141-2.61 4.25-2.672.126-.078.141-.375.079-.953l-.11-.844-1.953-.906c-1.796-.828-1.968-.875-2.218-.656-.157.14-.64.375-1.094.531Zm43.719.406-.47.578 1 1.907 1 1.906 1.032.063c.922.078 1.485.265 2.203.78.22.141.86-.187 3.75-1.984a368.128 368.128 0 0 0 3.97-2.484l.468-.328-5.781-.485c-3.188-.265-6-.5-6.25-.515-.36-.016-.579.11-.922.562Zm-35.563-.187c-.5.265-.937.953-.937 1.484 0 .578.468 1.266 1.047 1.5 1.093.469 2.234-.328 2.234-1.562-.016-.735-.219-1.078-.875-1.422-.578-.297-.89-.297-1.469 0ZM44.47 28.75l-4.672 1.813-.062.843c-.032.469-.063 1.032-.094 1.235-.031.312.25.578 1.64 1.609l1.672 1.234.594-.375c.875-.547 1.656-.765 2.64-.718l.891.047 1.828-3.829c1.25-2.593 1.782-3.875 1.688-4-.125-.14-.297-.125-.797.078-.36.141-2.766 1.063-5.328 2.063Zm6.375 2.14a278.687 278.687 0 0 0-1.781 3.72l-.266.624.563.641.562.625 2.438-.844 2.437-.843.11-.688c.093-.766.437-1.531.906-2.031.297-.344.297-.344-.188-1.328-.281-.547-.75-1.438-1.047-1.985l-.547-.968h-1.704l-1.484 3.078Zm15.125.126c-3.766 2.328-3.781 2.343-3.688 2.812.063.25.157.516.235.563.078.047 1.328.343 2.765.672l2.625.578.579-.547c.312-.297.765-.578 1.015-.64l.453-.095.39-2.687c.36-2.453.376-2.703.142-2.875-.141-.11-.36-.188-.485-.156-.14.015-1.953 1.078-4.031 2.375Zm-31.64-2.203c-.782.28-1.188.656-1.532 1.421-.375.797-.36 1.391 0 2.22.422.921 1.375 1.515 2.422 1.515 2.39 0 3.578-2.828 1.89-4.516-.812-.812-1.718-1.015-2.78-.64ZM24.062 29.89c0 .437 2.547 9.578 2.687 9.656.5.328.813.047 2.828-2.531l2.11-2.688-.453-.828c-.235-.469-.485-1.156-.532-1.531l-.11-.703-1.515-.328c-.828-.188-2.203-.5-3.062-.704-1.578-.375-1.953-.437-1.953-.343Zm-9.39 3.03c-2.298 1.454-4.188 2.657-4.188 2.704 0 .047 3.015 1.203 6.734 2.563 6.875 2.546 6.969 2.562 7.36 1.953.109-.172-.188-1.563-1-4.625l-1.141-4.375h-.97c-.75.015-1.14-.078-1.733-.391-.407-.234-.782-.422-.813-.422-.031-.015-1.937 1.156-4.25 2.594Zm42.733.25c-.734.673-.875 1.517-.343 2.298.422.61 1.312 1.031 1.922.875.703-.172 1.343-.89 1.437-1.61.234-1.734-1.719-2.75-3.016-1.562Zm-20.609 2.423c-.86.328-1.594.375-2.516.172-.515-.11-.984-.203-1.046-.22-.22 0-4.313 5.313-4.188 5.438.078.063 1.984-.234 4.25-.672 4.328-.843 8.125-1.562 8.188-1.562.015 0 .078-.266.125-.594.046-.312.125-.718.171-.89.079-.25-.218-.532-1.593-1.5l-1.672-1.203-.625.421c-.344.235-.844.516-1.094.61Zm-29.78-.343c-.14.172-.156.313-.031.5.234.375.687.422.921.11.438-.594-.421-1.172-.89-.61Zm62.719 1.219c-.094.093-.235.36-.282.593-.078.329-.015.516.297.813.219.234.531.406.719.406.39 0 1.094-.656 1.094-1.015 0-.938-1.172-1.438-1.828-.797Zm-8.297.406c-.532.625-1.516 1.25-1.985 1.25-.156 0-.234.14-.234.422 0 .25-.11 1.672-.234 3.172-.297 3.562-.297 3.484.046 3.406.157-.047 2.157-1.61 4.454-3.469 4.078-3.312 4.515-3.765 3.984-4.093-.172-.11-4.953-1.266-5.344-1.297-.078-.016-.39.265-.687.609Zm-16.875-.203c-1.532 1.125-1.532 3.187.015 4.328.657.484 2.188.469 2.907-.047.593-.422 1.093-1.422 1.109-2.172 0-.937-.766-2.031-1.719-2.422-.469-.203-1.89-.015-2.312.313Zm6.172 1.531c-.188.078-.266.297-.266.766a5.11 5.11 0 0 1-.219 1.203l-.203.578L53.031 43c2.782 2.11 3.016 2.25 3.407 2.094.28-.094.437-.266.437-.469 0-.188.11-1.531.235-2.984.328-3.703.328-3.547-.297-3.891a4.767 4.767 0 0 1-.953-.719l-.422-.437-2.203.75c-1.22.406-2.344.797-2.5.86ZM11.03 39.75c1.25 2.11 1.375 2.281 1.797 2.281.657 0 1.5.39 1.985.907l.422.453 3.437-.532c1.89-.297 3.547-.562 3.672-.609.125-.047-2.656-1.156-6.172-2.469-3.531-1.312-6.422-2.36-6.453-2.343-.031.015.562 1.062 1.312 2.312Zm25.297 1.89c-7.36 1.407-6.906 1.297-7 1.641-.062.235.547.75 2.875 2.516l2.97 2.219.75-.36c.75-.343 1.952-.468 2.593-.265.281.093.578-.25 2.125-2.5 1-1.453 1.86-2.703 1.922-2.813.093-.187-.625-1.453-.828-1.453-.063 0-2.5.453-5.407 1.016Zm-10.61.094a1.055 1.055 0 0 0 0 1.688c.235.187.532.328.688.328.532 0 1.094-.61 1.094-1.172 0-.562-.562-1.172-1.094-1.172-.156 0-.453.14-.687.328Zm22.313 1.032c-.625.359-.968.437-1.859.437-.61 0-1.281-.047-1.5-.11-.39-.109-.516.016-2.328 2.641l-1.922 2.75.266.5.265.485 6.828-1.14c3.75-.626 6.891-1.142 6.954-1.142.078 0 .109-.109.078-.25-.047-.265-5.532-4.562-5.844-4.578-.094-.015-.516.172-.938.407Zm-35.828 1.64c-.218.375-.218.438.047.735.563.609 1.344.328 1.344-.485 0-.797-.984-.984-1.39-.25Zm6.953.25-3.578.578-.312.547a5.11 5.11 0 0 1-.578.86c-.266.297-.25.375.218 2.172.47 1.765.532 1.874.954 2 .406.109.593-.032 2.53-1.876 1.157-1.093 2.766-2.624 3.61-3.421 1.297-1.235 1.453-1.438 1.125-1.438-.219 0-2 .266-3.969.578Zm8.25.75c-.421.172-.812.219-1.312.157-.39-.063-.828-.126-.969-.141-.234-.031-7.156 6.36-7.156 6.61 0 .062 15.797-1.532 15.89-1.61.016-.016.047-.234.079-.484.047-.407-.172-.61-2.766-2.594-1.547-1.188-2.89-2.172-2.984-2.172-.094-.016-.453.094-.782.234ZM57 46.984c-.578.516-.156 1.61.64 1.61.376 0 .798-.485.798-.907 0-.828-.844-1.234-1.438-.703ZM36.47 49.47c-.64.437-.938 1.406-.64 2.14.327.782.952 1.203 1.78 1.203.594 0 .782-.078 1.235-.53 1.578-1.579-.5-4.032-2.375-2.813Zm11.734.687c-2.672.438-4.968.844-5.125.907-.203.078.438.28 1.907.593l2.203.469.36-.375c.187-.203.53-.469.765-.594.578-.297 1.922-.281 2.468.047l.438.25 1.344-1.047c.734-.578 1.343-1.078 1.343-1.125 0-.047-.187-.047-.437 0a307.8 307.8 0 0 1-5.266.875ZM26.25 53.125c-3.312.344-6.125.656-6.25.672-.125.031.985.437 2.485.922l2.718.89.547-.422c.688-.515 2.078-.656 2.813-.28l.484.25 2.156-1.344a158.863 158.863 0 0 0 2.235-1.407c.03-.047-.22-.031-.547.016-.344.047-3.328.36-6.64.703Zm-11.844.14c-.078.47.235.797.75.797.844 0 1.063-.984.313-1.359-.469-.234-.984.031-1.063.563ZM48.938 53c-.5.5.078 1.438.765 1.266.453-.125.688-.703.47-1.125-.204-.36-.923-.453-1.235-.141Zm-16.5 2.25L30 56.75v.625c0 .984-.578 1.813-1.64 2.36-.438.218-.47.328-.704 1.812l-.25 1.578.344.234c.188.11.5.547.688.938.28.594.328.89.25 1.547l-.094.812 1.156 1.14c1.031 1.016 1.203 1.126 1.594 1.048l.453-.11 1.922-7.14c1.047-3.922 1.906-7.203 1.906-7.282 0-.14-.469-.546-.64-.562-.063 0-1.204.672-2.547 1.5Zm-5.72 1.625a.806.806 0 0 0 .33 1.11c.67.359 1.437-.688.89-1.235-.313-.313-1.032-.234-1.22.125Zm-1.218 8c-.406.406 0 1.375.563 1.375.343 0 .812-.469.812-.797 0-.625-.937-1.016-1.375-.578Zm6 6c-.328.313-.312.672.016 1.031.312.344.719.36 1.047.031.484-.468.14-1.312-.532-1.312a.843.843 0 0 0-.53.25Z"/>
  </g>
  <defs>
    <filter id="a" width="80" height="84" x="0" y="0" color-interpolation-filters="sRGB" filterUnits="userSpaceOnUse">
      <feFlood flood-opacity="0" result="BackgroundImageFix"/>
      <feBlend in="SourceGraphic" in2="BackgroundImageFix" result="shape"/>
      <feColorMatrix in="SourceAlpha" result="hardAlpha" values="0 0 0 0 0 0 0 0 0 0 0 0 0 0 0 0 0 0 127 0"/>
      <feOffset dy="4"/>
      <feGaussianBlur stdDeviation="2"/>
      <feComposite in2="hardAlpha" k2="-1" k3="1" operator="arithmetic"/>
      <feColorMatrix values="0 0 0 0 0 0 0 0 0 0 0 0 0 0 0 0 0 0 0.25 0"/>
      <feBlend in2="shape" result="effect1_innerShadow_51_21"/>
    </filter>
  </defs>
</svg>
