<svg xmlns="http://www.w3.org/2000/svg" width="50" height="50" fill="none" viewBox="0 0 66 66">
  <path fill="#000" d="M32.597 0C24.244 0 15.89 3.178 9.534 9.534c-12.712 12.712-12.712 33.412 0 46.125a32.591 32.591 0 0 0 46.125 0c12.713-12.713 12.713-33.413 0-46.125C49.303 3.178 40.95 0 32.597 0Zm0 3.346c7.481 0 14.963 2.869 20.7 8.55 11.363 11.419 11.363 29.982 0 41.4-11.418 11.42-29.98 11.42-41.343 0-11.42-11.418-11.42-29.981-.058-41.4 5.738-5.681 13.22-8.55 20.7-8.55Zm0 16.875c-.956 0-1.688.732-1.688 1.688v9h-9c-.956 0-1.687.731-1.687 1.687 0 .957.731 1.688 1.687 1.688h9v9c0 .956.732 1.687 1.688 1.687s1.687-.73 1.687-1.687v-9h9c.957 0 1.688-.731 1.688-1.688 0-.956-.731-1.687-1.688-1.687h-9v-9c0-.956-.73-1.688-1.687-1.688Z"/>
</svg>
